<svg width="24" height="22" viewBox="0 0 24 22" fill="none" xmlns="http://www.w3.org/2000/svg">
<mask id="path-1-inside-1_1_1289" fill="white">
<path d="M15.0111 10.7646C14.8435 10.7646 14.6879 10.7185 14.5496 10.6444V10.6463C14.5496 10.91 14.4471 11.1577 14.2612 11.3431C14.0752 11.5291 13.8277 11.6316 13.5643 11.6316C13.3943 11.6316 13.2367 11.5844 13.097 11.5083C13.0828 11.7495 12.9864 11.975 12.8144 12.1472C12.6284 12.3332 12.381 12.4357 12.1174 12.4357C11.5938 12.4357 11.1685 12.024 11.1379 11.5081C10.9759 11.5957 10.7927 11.6416 10.6037 11.6295C10.0886 11.5957 9.68521 11.1506 9.68521 10.616V6.18435L9.18059 7.05859C8.98839 7.39297 8.62861 7.60058 8.24124 7.60058C8.05249 7.60058 7.86603 7.55105 7.70089 7.45643C7.49524 7.33721 7.34814 7.14583 7.28697 6.91687C7.22548 6.68778 7.25729 6.44818 7.37618 6.24285C7.37635 6.24285 9.02725 3.38395 9.12797 3.20834C9.13994 3.18194 9.17405 3.10536 9.20308 3.04009C9.23079 2.97777 9.25458 2.91381 9.27737 2.84953C9.77523 1.44397 11.008 0.570866 12.4947 0.570866C14.4254 0.570866 15.9961 2.27408 15.9961 4.36764L15.9963 9.77913C15.9963 10.0425 15.894 10.29 15.7082 10.4761C15.5222 10.6621 15.2747 10.7646 15.0111 10.7646L15.0111 10.7646ZM12.4948 1.09441C11.2172 1.09441 10.199 1.816 9.77084 3.02462C9.74345 3.10137 9.71492 3.17811 9.68163 3.2529C9.58504 3.46953 9.58504 3.46953 9.55781 3.50069L9.55421 3.49757C9.41941 3.75192 9.01894 4.44544 7.8295 6.50487C7.78063 6.58933 7.76767 6.6874 7.7926 6.7812C7.81786 6.875 7.87837 6.95405 7.96217 7.00242C8.22226 7.15182 8.57847 7.05539 8.72671 6.79711L9.72034 5.07681C9.77971 4.97431 9.89975 4.92397 10.0149 4.95513C10.1293 4.98579 10.2089 5.0896 10.2089 5.208V10.6161C10.2089 10.8713 10.4014 11.0915 10.6381 11.1071C10.7745 11.1143 10.9018 11.0686 10.9974 10.9731C11.0843 10.8862 11.1322 10.7704 11.1322 10.6466V7.10963C11.1322 6.96499 11.2494 6.84774 11.3941 6.84774C11.5387 6.84774 11.656 6.96483 11.656 7.10963L11.6558 11.4506C11.6558 11.7051 11.8629 11.9122 12.1174 11.9122C12.2411 11.9122 12.3572 11.8643 12.4443 11.7774C12.5312 11.6903 12.5791 11.5742 12.5791 11.4506V7.10963C12.5791 6.96499 12.6962 6.84773 12.841 6.84773C12.9856 6.84773 13.1029 6.96483 13.1029 7.10963L13.1027 10.6059V10.6466C13.1027 10.901 13.3098 11.1081 13.5645 11.1081C13.688 11.1081 13.8038 11.06 13.8913 10.9728C13.9783 10.886 14.0261 10.7703 14.0261 10.6464V7.10945C14.0261 6.96481 14.1432 6.84755 14.288 6.84755C14.4327 6.84755 14.5499 6.96464 14.5499 7.10945L14.5496 9.77925C14.5496 10.0339 14.7567 10.2411 15.0111 10.2411C15.1349 10.2411 15.2507 10.193 15.3376 10.1063C15.4248 10.019 15.4725 9.9029 15.4725 9.77925L15.4727 4.36777C15.4727 2.56304 14.1368 1.09446 12.4947 1.09446L12.4948 1.09441Z"/>
</mask>
<path d="M15.0111 10.7646C14.8435 10.7646 14.6879 10.7185 14.5496 10.6444V10.6463C14.5496 10.91 14.4471 11.1577 14.2612 11.3431C14.0752 11.5291 13.8277 11.6316 13.5643 11.6316C13.3943 11.6316 13.2367 11.5844 13.097 11.5083C13.0828 11.7495 12.9864 11.975 12.8144 12.1472C12.6284 12.3332 12.381 12.4357 12.1174 12.4357C11.5938 12.4357 11.1685 12.024 11.1379 11.5081C10.9759 11.5957 10.7927 11.6416 10.6037 11.6295C10.0886 11.5957 9.68521 11.1506 9.68521 10.616V6.18435L9.18059 7.05859C8.98839 7.39297 8.62861 7.60058 8.24124 7.60058C8.05249 7.60058 7.86603 7.55105 7.70089 7.45643C7.49524 7.33721 7.34814 7.14583 7.28697 6.91687C7.22548 6.68778 7.25729 6.44818 7.37618 6.24285C7.37635 6.24285 9.02725 3.38395 9.12797 3.20834C9.13994 3.18194 9.17405 3.10536 9.20308 3.04009C9.23079 2.97777 9.25458 2.91381 9.27737 2.84953C9.77523 1.44397 11.008 0.570866 12.4947 0.570866C14.4254 0.570866 15.9961 2.27408 15.9961 4.36764L15.9963 9.77913C15.9963 10.0425 15.894 10.29 15.7082 10.4761C15.5222 10.6621 15.2747 10.7646 15.0111 10.7646L15.0111 10.7646ZM12.4948 1.09441C11.2172 1.09441 10.199 1.816 9.77084 3.02462C9.74345 3.10137 9.71492 3.17811 9.68163 3.2529C9.58504 3.46953 9.58504 3.46953 9.55781 3.50069L9.55421 3.49757C9.41941 3.75192 9.01894 4.44544 7.8295 6.50487C7.78063 6.58933 7.76767 6.6874 7.7926 6.7812C7.81786 6.875 7.87837 6.95405 7.96217 7.00242C8.22226 7.15182 8.57847 7.05539 8.72671 6.79711L9.72034 5.07681C9.77971 4.97431 9.89975 4.92397 10.0149 4.95513C10.1293 4.98579 10.2089 5.0896 10.2089 5.208V10.6161C10.2089 10.8713 10.4014 11.0915 10.6381 11.1071C10.7745 11.1143 10.9018 11.0686 10.9974 10.9731C11.0843 10.8862 11.1322 10.7704 11.1322 10.6466V7.10963C11.1322 6.96499 11.2494 6.84774 11.3941 6.84774C11.5387 6.84774 11.656 6.96483 11.656 7.10963L11.6558 11.4506C11.6558 11.7051 11.8629 11.9122 12.1174 11.9122C12.2411 11.9122 12.3572 11.8643 12.4443 11.7774C12.5312 11.6903 12.5791 11.5742 12.5791 11.4506V7.10963C12.5791 6.96499 12.6962 6.84773 12.841 6.84773C12.9856 6.84773 13.1029 6.96483 13.1029 7.10963L13.1027 10.6059V10.6466C13.1027 10.901 13.3098 11.1081 13.5645 11.1081C13.688 11.1081 13.8038 11.06 13.8913 10.9728C13.9783 10.886 14.0261 10.7703 14.0261 10.6464V7.10945C14.0261 6.96481 14.1432 6.84755 14.288 6.84755C14.4327 6.84755 14.5499 6.96464 14.5499 7.10945L14.5496 9.77925C14.5496 10.0339 14.7567 10.2411 15.0111 10.2411C15.1349 10.2411 15.2507 10.193 15.3376 10.1063C15.4248 10.019 15.4725 9.9029 15.4725 9.77925L15.4727 4.36777C15.4727 2.56304 14.1368 1.09446 12.4947 1.09446L12.4948 1.09441Z" fill="#4CAF4F"/>
<path d="M15.0111 10.7646V9.83647H18.2901L15.4975 11.555L15.0111 10.7646ZM14.5496 10.6444H13.6215V9.09362L14.9882 9.82642L14.5496 10.6444ZM14.2612 11.3431L13.6049 10.6869L13.6058 10.686L14.2612 11.3431ZM13.097 11.5083L12.1704 11.4541L12.2558 9.99345L13.5408 10.6932L13.097 11.5083ZM12.8144 12.1472L13.471 12.8031L13.4707 12.8035L12.8144 12.1472ZM11.1379 11.5081L10.6966 10.6916L11.978 9.9991L12.0643 11.4531L11.1379 11.5081ZM10.6037 11.6295L10.5442 12.5557L10.543 12.5556L10.6037 11.6295ZM9.68521 6.18435L8.88142 5.72039L10.6133 2.71998V6.18435H9.68521ZM9.18059 7.05859L8.37595 6.59609L8.37679 6.59462L9.18059 7.05859ZM7.70089 7.45643L7.23947 8.2617L7.2354 8.25935L7.70089 7.45643ZM7.28697 6.91687L8.18333 6.67627L8.18361 6.67731L7.28697 6.91687ZM7.37618 6.24285L6.57302 5.77779L6.84113 5.31476H7.37618V6.24285ZM9.12797 3.20834L9.97323 3.5916L9.95501 3.63179L9.93306 3.67007L9.12797 3.20834ZM9.20308 3.04009L8.35506 2.66296L8.35507 2.66295L9.20308 3.04009ZM9.27737 2.84953L10.1522 3.1594L10.1521 3.15966L9.27737 2.84953ZM15.9961 4.36764L15.068 4.36767V4.36764H15.9961ZM15.9963 9.77913L16.9244 9.7791V9.77913H15.9963ZM15.7082 10.4761L16.365 11.1318L16.3644 11.1324L15.7082 10.4761ZM15.0111 10.7646V11.6927H11.7321L14.5246 9.97416L15.0111 10.7646ZM12.4948 1.09441V0.166316H13.7252L13.3871 1.34938L12.4948 1.09441ZM9.77084 3.02462L10.6457 3.33454L10.6449 3.33654L9.77084 3.02462ZM9.68163 3.2529L10.5295 3.63035L10.5293 3.63084L9.68163 3.2529ZM9.55781 3.50069L10.2567 4.11134L9.64956 4.80623L8.9512 4.20309L9.55781 3.50069ZM9.55421 3.49757L8.73416 3.06297L9.27948 2.03401L10.1608 2.79517L9.55421 3.49757ZM7.8295 6.50487L8.63318 6.96904L8.63279 6.96971L7.8295 6.50487ZM7.7926 6.7812L6.89641 7.02248L6.89564 7.01958L7.7926 6.7812ZM7.96217 7.00242L7.4999 7.8072L7.49817 7.8062L7.96217 7.00242ZM8.72671 6.79711L7.92176 6.33512L7.92304 6.33291L8.72671 6.79711ZM9.72034 5.07681L8.91667 4.61261L8.91724 4.61164L9.72034 5.07681ZM10.0149 4.95513L9.7747 5.85161L9.7724 5.85099L10.0149 4.95513ZM10.6381 11.1071L10.589 12.034L10.5771 12.0332L10.6381 11.1071ZM10.9974 10.9731L11.6536 11.6294L11.653 11.63L10.9974 10.9731ZM11.656 7.10963H12.584V7.10967L11.656 7.10963ZM11.6558 11.4506H10.7277V11.4505L11.6558 11.4506ZM12.4443 11.7774L13.1011 12.4331L13.0999 12.4343L12.4443 11.7774ZM13.1029 7.10963H14.031V7.10967L13.1029 7.10963ZM13.1027 10.6059H12.1746V10.6059L13.1027 10.6059ZM13.8913 10.9728L14.547 11.6297L14.5464 11.6303L13.8913 10.9728ZM14.5499 7.10945H15.478V7.10956L14.5499 7.10945ZM14.5496 9.77925H13.6215V9.77914L14.5496 9.77925ZM15.3376 10.1063L15.9938 10.7625L15.9932 10.7631L15.3376 10.1063ZM15.4725 9.77925H14.5444V9.77923L15.4725 9.77925ZM15.4727 4.36777H16.4008V4.36779L15.4727 4.36777ZM12.4947 1.09446V2.02256H11.2643L11.6024 0.839496L12.4947 1.09446ZM15.0111 11.6927C14.6693 11.6927 14.3642 11.598 14.111 11.4623L14.9882 9.82642C15.0002 9.83285 15.0078 9.83531 15.0108 9.83613C15.0134 9.83683 15.0131 9.83647 15.0111 9.83647V11.6927ZM15.4777 10.6444V10.6463H13.6215V10.6444H15.4777ZM15.4777 10.6463C15.4777 11.1554 15.2779 11.6398 14.9165 12.0003L13.6058 10.686C13.6124 10.6794 13.6157 10.6737 13.6176 10.6691C13.6195 10.6644 13.6215 10.6573 13.6215 10.6463H15.4777ZM14.9174 11.9994C14.5572 12.3596 14.0737 12.5597 13.5643 12.5597V10.7035C13.575 10.7035 13.582 10.7016 13.5868 10.6996C13.5915 10.6976 13.5976 10.6941 13.6049 10.6869L14.9174 11.9994ZM13.5643 12.5597C13.2181 12.5597 12.9092 12.4628 12.6531 12.3234L13.5408 10.6932C13.5529 10.6998 13.5606 10.7023 13.5636 10.7031C13.5662 10.7038 13.566 10.7035 13.5643 10.7035V12.5597ZM14.0235 11.5624C13.9968 12.0193 13.8114 12.4623 13.471 12.8031L12.1578 11.4913C12.1612 11.4878 12.1632 11.4848 12.1649 11.481C12.1667 11.4768 12.1696 11.4683 12.1704 11.4541L14.0235 11.5624ZM13.4707 12.8035C13.1104 13.1637 12.6268 13.3638 12.1174 13.3638V11.5076C12.1282 11.5076 12.1353 11.5056 12.14 11.5037C12.1448 11.5017 12.1509 11.4982 12.1581 11.4909L13.4707 12.8035ZM12.1174 13.3638C11.0928 13.3638 10.2706 12.5596 10.2114 11.5632L12.0643 11.4531C12.0653 11.4689 12.0717 11.4827 12.0832 11.4936C12.0887 11.4989 12.0944 11.5023 12.0993 11.5044C12.1036 11.5061 12.1091 11.5076 12.1174 11.5076V13.3638ZM11.5792 12.3246C11.2794 12.4866 10.9239 12.58 10.5442 12.5557L10.6632 10.7033C10.6633 10.7033 10.6652 10.7035 10.6701 10.7023C10.6754 10.7011 10.6844 10.6982 10.6966 10.6916L11.5792 12.3246ZM10.543 12.5556C9.51252 12.488 8.75712 11.6116 8.75712 10.616H10.6133C10.6133 10.6474 10.6247 10.6715 10.639 10.6873C10.6529 10.7026 10.6624 10.7032 10.6645 10.7034L10.543 12.5556ZM8.75712 10.616V6.18435H10.6133V10.616H8.75712ZM10.489 6.64832L9.98439 7.52255L8.37679 6.59462L8.88142 5.72039L10.489 6.64832ZM9.98523 7.52109C9.62661 8.14501 8.95907 8.52867 8.24124 8.52867V6.67248C8.29815 6.67248 8.35017 6.64093 8.37595 6.59609L9.98523 7.52109ZM8.24124 8.52867C7.89027 8.52867 7.54478 8.43664 7.23947 8.26169L8.16231 6.65116C8.18727 6.66546 8.2147 6.67248 8.24124 6.67248V8.52867ZM7.2354 8.25935C6.81872 8.01778 6.51543 7.62465 6.39033 7.15644L8.18361 6.67731C8.18276 6.67414 8.18045 6.66854 8.17598 6.66271C8.17154 6.65693 8.16744 6.65413 8.16637 6.65351L7.2354 8.25935ZM6.39061 7.15748C6.26502 6.68961 6.33077 6.19616 6.57302 5.77779L8.17935 6.70791C8.18067 6.70563 8.18299 6.70033 8.18399 6.69283C8.18498 6.68531 8.18415 6.67931 8.18333 6.67627L6.39061 7.15748ZM7.37618 5.31476C6.92092 5.43409 6.58015 5.76568 6.57761 5.76995C6.57676 5.77138 6.5755 5.77353 6.5751 5.77422C6.57487 5.77461 6.57447 5.77529 6.57434 5.77552C6.57425 5.77566 6.57408 5.77596 6.57404 5.77603C6.57391 5.77625 6.57395 5.77618 6.5743 5.77558C6.57493 5.77449 6.57599 5.77266 6.57753 5.77C6.58058 5.76473 6.58516 5.7568 6.59121 5.74633C6.60329 5.72542 6.62105 5.69468 6.64372 5.65544C6.68905 5.57696 6.75393 5.46463 6.83211 5.32926C6.98846 5.05853 7.19797 4.6957 7.41063 4.32739C7.83665 3.58953 8.27341 2.83288 8.32288 2.74662L9.93306 3.67007C9.88181 3.75942 9.44276 4.52002 9.01811 5.25551C8.80543 5.62387 8.59589 5.98675 8.4395 6.25755C8.36131 6.39294 8.2964 6.50533 8.25102 6.58389C8.22834 6.62316 8.21051 6.65401 8.19834 6.67507C8.19227 6.68558 8.18756 6.69373 8.18434 6.69929C8.18275 6.70204 8.18143 6.70432 8.18047 6.70598C8.18003 6.70675 8.17947 6.70772 8.17893 6.70863C8.17874 6.70897 8.17814 6.71 8.17742 6.71122C8.17697 6.71199 8.17567 6.71421 8.1748 6.71568C8.17223 6.72 7.83145 7.05161 7.37618 7.17094V5.31476ZM8.28271 2.82508C8.29292 2.80255 8.32529 2.72991 8.35506 2.66296L10.0511 3.41721C10.0228 3.48081 9.98696 3.56133 9.97323 3.5916L8.28271 2.82508ZM8.35507 2.66295C8.36797 2.63395 8.38224 2.59689 8.40262 2.5394L10.1521 3.15966C10.1269 3.23074 10.0936 3.32159 10.0511 3.41723L8.35507 2.66295ZM8.40253 2.53965C9.03112 0.765037 10.6133 -0.357227 12.4947 -0.357227V1.49896C11.4027 1.49896 10.5193 2.1229 10.1522 3.1594L8.40253 2.53965ZM12.4947 -0.357227C15.0073 -0.357227 16.9242 1.83371 16.9242 4.36764H15.068C15.068 2.71445 13.8435 1.49896 12.4947 1.49896V-0.357227ZM16.9242 4.36761L16.9244 9.7791L15.0682 9.77916L15.068 4.36767L16.9242 4.36761ZM16.9244 9.77913C16.9244 10.2881 16.7247 10.7714 16.365 11.1318L15.0513 9.82047C15.0586 9.81312 15.0622 9.80687 15.0642 9.80199C15.0662 9.79711 15.0682 9.78995 15.0682 9.77913H16.9244ZM16.3644 11.1324C16.0042 11.4927 15.5205 11.6927 15.0111 11.6927V9.83649C15.022 9.83649 15.0291 9.83451 15.0338 9.83255C15.0386 9.83059 15.0447 9.8271 15.0519 9.81986L16.3644 11.1324ZM14.5246 9.97416L14.5247 9.97414L15.4975 11.555L15.4975 11.555L14.5246 9.97416ZM12.4948 2.0225C11.6124 2.0225 10.9432 2.49454 10.6457 3.33454L8.89602 2.7147C9.45479 1.13745 10.8221 0.166316 12.4948 0.166316V2.0225ZM10.6449 3.33654C10.6157 3.41863 10.5776 3.52232 10.5295 3.63035L8.83376 2.87544C8.85225 2.83391 8.87126 2.7841 8.89673 2.7127L10.6449 3.33654ZM10.5293 3.63084C10.4868 3.72616 10.4512 3.80666 10.4239 3.86119C10.407 3.89503 10.3796 3.94719 10.3399 4.00496C10.2997 4.06349 10.2599 4.10764 10.2567 4.11134L8.85892 2.89003C8.86109 2.88754 8.86038 2.88835 8.85928 2.88963C8.85786 2.89127 8.85426 2.89548 8.84953 2.90125C8.84462 2.90722 8.83845 2.91494 8.83149 2.92412C8.82447 2.93338 8.81733 2.94323 8.81019 2.95362C8.79565 2.97478 8.78445 2.99331 8.77649 3.00733C8.76906 3.02041 8.76451 3.02946 8.76349 3.0315C8.76244 3.03361 8.7631 3.03237 8.76625 3.02562C8.7693 3.01908 8.77363 3.00965 8.77984 2.99594C8.78599 2.98234 8.79336 2.96592 8.80244 2.94563C8.8115 2.92537 8.82185 2.90216 8.83398 2.87495L10.5293 3.63084ZM8.9512 4.20309L8.94759 4.19997L10.1608 2.79517L10.1644 2.79828L8.9512 4.20309ZM10.3743 3.93217C10.229 4.20625 9.81432 4.92398 8.63318 6.96904L7.02582 6.0407C8.22355 3.96691 8.60981 3.2976 8.73416 3.06297L10.3743 3.93217ZM8.63279 6.96971C8.70706 6.84138 8.72775 6.68654 8.68956 6.54282L6.89564 7.01958C6.80759 6.68826 6.8542 6.33728 7.02621 6.04003L8.63279 6.96971ZM8.68878 6.53992C8.65059 6.39807 8.55673 6.27401 8.42617 6.19865L7.49817 7.8062C7.20001 7.63408 6.98512 7.35194 6.89642 7.02248L8.68878 6.53992ZM8.42444 6.19765C8.31879 6.13696 8.21605 6.13737 8.1451 6.15647C8.07442 6.1755 7.9838 6.22704 7.92177 6.33513L9.53165 7.25909C9.12716 7.96384 8.20277 8.21093 7.4999 7.8072L8.42444 6.19765ZM7.92304 6.33291L8.91667 4.61261L10.524 5.541L9.53037 7.2613L7.92304 6.33291ZM8.91724 4.61164C9.18531 4.14882 9.73247 3.91721 10.2573 4.05927L9.7724 5.85099C10.067 5.93073 10.3741 5.7998 10.5234 5.54198L8.91724 4.61164ZM10.255 4.05865C10.7757 4.19814 11.137 4.66998 11.137 5.208H9.28078C9.28078 5.50922 9.48296 5.77345 9.7747 5.8516L10.255 4.05865ZM11.137 5.208V10.6161H9.28078V5.208H11.137ZM11.137 10.6161C11.137 10.5104 11.0978 10.4142 11.0335 10.3407C10.9693 10.2672 10.8559 10.1914 10.699 10.181L10.5771 12.0332C9.79583 11.9818 9.28078 11.3012 9.28078 10.6161H11.137ZM10.6871 10.1803C10.5774 10.1745 10.4435 10.2147 10.3417 10.3163L11.653 11.63C11.36 11.9225 10.9716 12.0541 10.589 12.0339L10.6871 10.1803ZM10.3411 10.3169C10.253 10.4049 10.2041 10.5256 10.2041 10.6466H12.0603C12.0603 11.0152 11.9155 11.3675 11.6536 11.6294L10.3411 10.3169ZM10.2041 10.6466V7.10963H12.0603V10.6466H10.2041ZM10.2041 7.10963C10.2041 6.45242 10.7368 5.91964 11.3941 5.91964V7.77583C11.762 7.77583 12.0603 7.47756 12.0603 7.10963H10.2041ZM11.3941 5.91964C12.0509 5.91964 12.584 6.45189 12.584 7.10963H10.7279C10.7279 7.47777 11.0265 7.77583 11.3941 7.77583V5.91964ZM12.584 7.10967L12.5839 11.4506L10.7277 11.4505L10.7279 7.1096L12.584 7.10967ZM12.5839 11.4506C12.5839 11.1925 12.3755 10.9841 12.1174 10.9841V12.8403C11.3503 12.8403 10.7277 12.2177 10.7277 11.4506H12.5839ZM12.1174 10.9841C11.9966 10.9841 11.8765 11.0328 11.7886 11.1205L13.0999 12.4343C12.8378 12.6959 12.4855 12.8403 12.1174 12.8403V10.9841ZM11.7874 11.1218C11.6996 11.2097 11.651 11.3298 11.651 11.4506H13.5072C13.5072 11.8187 13.3627 12.171 13.1011 12.4331L11.7874 11.1218ZM11.651 11.4506V7.10963H13.5072V11.4506H11.651ZM11.651 7.10963C11.651 6.4528 12.1832 5.91964 12.841 5.91964V7.77583C13.2091 7.77583 13.5072 7.47718 13.5072 7.10963H11.651ZM12.841 5.91964C13.4978 5.91964 14.031 6.45188 14.031 7.10963H12.1748C12.1748 7.47777 12.4734 7.77583 12.841 7.77583V5.91964ZM14.031 7.10967L14.0308 10.606L12.1746 10.6059L12.1748 7.10959L14.031 7.10967ZM14.0308 10.6059V10.6466H12.1746V10.6059H14.0308ZM14.0308 10.6466C14.0308 10.3879 13.8219 10.18 13.5645 10.18V12.0362C12.7977 12.0362 12.1746 11.414 12.1746 10.6466H14.0308ZM13.5645 10.18C13.4412 10.18 13.3218 10.2301 13.2363 10.3153L14.5464 11.6303C14.2857 11.8899 13.9348 12.0362 13.5645 12.0362V10.18ZM13.2357 10.3159C13.1469 10.4045 13.098 10.5256 13.098 10.6464H14.9542C14.9542 11.0149 14.8096 11.3675 14.547 11.6297L13.2357 10.3159ZM13.098 10.6464V7.10945H14.9542V10.6464H13.098ZM13.098 7.10945C13.098 6.45261 13.6303 5.91946 14.288 5.91946V7.77564C14.6562 7.77564 14.9542 7.47701 14.9542 7.10945H13.098ZM14.288 5.91946C14.9449 5.91946 15.478 6.45169 15.478 7.10945H13.6218C13.6218 7.47759 13.9205 7.77564 14.288 7.77564V5.91946ZM15.478 7.10956L15.4777 9.77937L13.6215 9.77914L13.6218 7.10933L15.478 7.10956ZM15.4777 9.77925C15.4777 9.5218 15.2697 9.31297 15.0111 9.31297V11.1692C14.2437 11.1692 13.6215 10.5461 13.6215 9.77925H15.4777ZM15.0111 9.31297C14.8893 9.31297 14.7692 9.36226 14.6819 9.44938L15.9932 10.7631C15.7321 11.0238 15.3804 11.1692 15.0111 11.1692V9.31297ZM14.6813 9.45C14.5929 9.53837 14.5444 9.65899 14.5444 9.77925H16.4006C16.4006 10.1468 16.2567 10.4997 15.9938 10.7625L14.6813 9.45ZM14.5444 9.77923L14.5446 4.36774L16.4008 4.36779L16.4006 9.77928L14.5444 9.77923ZM14.5446 4.36777C14.5446 2.99103 13.5436 2.02256 12.4947 2.02256V0.166369C14.7301 0.166369 16.4008 2.13505 16.4008 4.36777H14.5446ZM11.6024 0.839496L11.6024 0.839442L13.3871 1.34938L13.3871 1.34943L11.6024 0.839496Z" fill="#4CAF4F" mask="url(#path-1-inside-1_1_1289)"/>
<path d="M6.5285 15.7395C6.4042 15.8142 6.24348 15.7739 6.16919 15.6498C6.09474 15.5258 6.13508 15.3649 6.2589 15.2905M6.5285 15.7395L8.7911 12.6949C9.0097 12.5636 9.298 12.6154 9.4328 12.8104M6.5285 15.7395L9.56137 13.92H9.56153L9.56186 13.9198M6.5285 15.7395L10.7259 14.2981C10.8318 14.2345 10.9066 14.1338 10.9364 14.0143M6.2589 15.2905L9.29193 13.471C9.39787 13.4073 9.47282 13.3065 9.50266 13.1872M6.2589 15.2905L6.2896 15.3416L6.3936 15.515L6.39381 15.5154L6.44067 15.5935L6.49762 15.6884L6.49773 15.6883L6.49779 15.6883L6.49803 15.6881M6.2589 15.2905L6.28966 15.3416M9.50266 13.1872C9.53546 13.0564 9.51053 12.9226 9.4328 12.8104M9.50266 13.1872L9.57752 13.206L9.57037 13.0521C9.56545 12.9462 9.53446 12.8522 9.48205 12.7767L9.4819 12.7764L9.4328 12.8104M9.50266 13.1872L9.57752 13.206L9.5849 13.3648L9.43306 13.4559H9.43285L9.32264 13.522L9.32262 13.522L9.32259 13.5221L6.28977 15.3415M9.4328 12.8104L9.48186 12.7764L7.24255 16.9289C7.33777 16.8716 7.36927 16.7477 7.31153 16.6516C7.25427 16.5563 7.13001 16.5249 7.0343 16.5823L10.0672 14.7629C10.1369 14.721 10.2099 14.6894 10.2845 14.6677L10.7549 14.3465L10.7549 14.3465L10.7808 14.3288C10.8912 14.2534 10.9642 14.149 10.9942 14.0288L10.9942 14.0287L10.9364 14.0143M6.28977 15.3415C6.38522 15.2845 6.50945 15.3154 6.56702 15.4109C6.56714 15.4111 6.56727 15.4113 6.56739 15.4115C6.62462 15.5075 6.59306 15.631 6.49803 15.6881M6.28977 15.3415C6.28973 15.3416 6.28969 15.3416 6.28966 15.3416M6.28977 15.3415L6.28966 15.3416M6.49803 15.6881L9.53065 13.8689L9.53071 13.8689L9.53086 13.8688C9.53096 13.8687 9.53105 13.8687 9.53114 13.8686L9.56137 13.919L9.56153 13.9193L9.56186 13.9198M6.49803 15.6881L6.39404 15.5152L6.39384 15.5149L6.35865 15.4564L6.28966 15.3416M9.56186 13.9198V13.8493C9.62038 13.811 9.67394 13.7666 9.72176 13.717L10.221 13.4564L10.221 13.4564L10.2486 13.442C10.3289 13.4001 10.4098 13.3805 10.4867 13.3805C10.5283 13.3805 10.5711 13.3856 10.6148 13.3965C10.6148 13.3965 10.6149 13.3965 10.6149 13.3965C10.615 13.3965 10.6152 13.3966 10.6153 13.3966L10.713 13.0042M9.56186 13.9198L10.251 13.5064C10.3566 13.4431 10.4802 13.4245 10.6004 13.4544C10.72 13.4842 10.8208 13.559 10.8843 13.6648C10.9478 13.7707 10.9663 13.8949 10.9364 14.0143M10.713 13.0042C10.713 13.0042 10.713 13.0042 10.713 13.0042M10.713 13.0042C10.9521 13.064 11.1555 13.2149 11.2821 13.4259L11.3332 13.3953M10.713 13.0042L10.7274 12.9463M10.713 13.0042L10.615 13.3965C10.7507 13.4304 10.8632 13.5138 10.9353 13.634C10.9353 13.634 10.9353 13.6341 10.9354 13.6341C10.9354 13.6342 10.9354 13.6342 10.9354 13.6342C11.0077 13.7549 11.0281 13.8933 10.9942 14.0285L10.9942 14.0287L10.9364 14.0143M10.713 13.0042C10.7129 13.0042 10.7129 13.0042 10.7128 13.0042L10.7122 13.004C10.6405 12.9862 10.5679 12.9771 10.4956 12.9765M10.713 13.0042L10.7274 12.9463M10.2754 15.1095L10.537 14.9526L10.8067 15.1117C10.8875 15.1594 10.9486 15.2191 10.9899 15.288L10.99 15.2883C10.99 15.2883 10.9901 15.2884 10.9901 15.2885L10.9392 15.3191M10.2754 15.1095L11.0492 15.6831C11.0829 15.5475 11.0623 15.4091 10.9902 15.2885L10.9392 15.3191M10.2754 15.1095L10.3061 15.1607M10.2754 15.1095L10.2753 15.1095L10.3061 15.1607M10.9392 15.3191C10.8082 15.1008 10.524 15.0298 10.3061 15.1607M10.9392 15.3191C11.0029 15.4249 11.0214 15.5492 10.9915 15.6688L10.3061 15.1607M11.3814 15.0388C11.3836 15.0424 11.3858 15.046 11.388 15.0497L11.3814 15.0388ZM11.3814 15.0388C11.3657 15.0511 11.3498 15.063 11.3336 15.0746C11.3347 15.0764 11.3358 15.0781 11.3369 15.0799L11.3814 15.0388ZM11.3092 14.3311C11.3426 14.267 11.3687 14.1985 11.3866 14.1268L11.3092 14.3311ZM11.3092 14.3311C11.3258 14.3414 11.3424 14.3521 11.3587 14.3632C11.3959 14.2939 11.4249 14.2196 11.4444 14.1412C11.5082 13.8861 11.4687 13.6213 11.3332 13.3953M11.3092 14.3311L11.3867 14.1267C11.4464 13.8876 11.4087 13.6373 11.2824 13.4263L11.2822 13.426C11.2822 13.426 11.2822 13.426 11.2821 13.4259L11.3332 13.3953M11.3332 13.3953C11.1979 13.1697 10.9828 13.0101 10.7274 12.9463M10.7274 12.9463L10.4904 12.9165M10.4904 12.9165C10.4925 12.9365 10.4943 12.9565 10.4956 12.9765M10.4904 12.9165C10.4891 12.9165 10.4879 12.9165 10.4867 12.9165C10.3298 12.9165 10.1756 12.9566 10.0339 13.0306M10.4904 12.9165L10.0339 13.0306M10.4956 12.9765C10.4963 12.9873 10.497 12.9982 10.4975 13.0091L10.4867 13.0096L10.1986 13.0229M10.4956 12.9765C10.4926 12.9764 10.4897 12.9764 10.4867 12.9764C10.3888 12.9765 10.2916 12.9922 10.1986 13.0229M10.1986 13.0229L10.0339 13.0306M10.1986 13.0229C10.1513 13.0386 10.1052 13.0581 10.0604 13.0814C10.0442 13.0899 10.0282 13.0989 10.0124 13.1084L10.0122 13.1085L9.97922 13.1282M10.0339 13.0306L9.76944 13.2541L9.76953 13.2541L9.95282 13.2999C9.95281 13.3 9.9528 13.3 9.95279 13.3001C9.96709 13.243 9.97585 13.1855 9.97922 13.1282M10.0339 13.0306L9.96307 12.8949M10.0339 13.0306C10.0266 12.8725 9.98489 12.7168 9.9049 12.5778C9.88671 12.5859 9.86869 12.5944 9.85085 12.6032M9.97922 13.1282C9.9811 13.0964 9.98131 13.0647 9.97989 13.0331C9.9778 12.9865 9.97216 12.9404 9.96307 12.8949M9.97922 13.1282L9.96307 12.8949M9.96307 12.8949L9.81919 12.6192C9.82968 12.6137 9.84023 12.6084 9.85085 12.6032M9.96307 12.8949L9.81431 12.5462C9.82722 12.5648 9.8394 12.5838 9.85085 12.6032M9.96307 12.8949C9.94268 12.7928 9.90491 12.6944 9.85085 12.6032M11.0425 14.712L11.1218 14.5775C11.0874 14.6097 11.0505 14.6393 11.0112 14.6662C10.9961 14.6765 10.9806 14.6864 10.9648 14.6959L10.9646 14.6961L10.9311 14.7162L11.0425 14.712ZM3.63167 12.5524L3.57891 12.5246C3.56921 12.5421 3.54507 12.5856 3.5094 12.6499C3.50057 12.6658 3.49103 12.6829 3.48083 12.7013C3.49901 12.7104 3.51736 12.7183 3.53573 12.7253C3.5671 12.6687 3.59908 12.6111 3.63167 12.5524ZM7.77865 17.823C7.7786 17.8231 7.77855 17.8231 7.7785 17.8231L7.77865 17.823Z" fill="#4CAF4F" stroke="#4CAF4F" stroke-width="0.928093"/>
<path d="M19.4805 13.3885L19.4805 13.3885L19.4805 13.3885ZM19.4805 13.3885C19.3833 13.2143 19.3872 12.9998 19.4902 12.8281L19.4805 13.3885ZM13.7389 12.9762C13.6664 12.9768 13.5935 12.986 13.5216 13.004L13.7389 12.9762ZM13.7389 12.9762C13.7403 12.9563 13.742 12.9363 13.7442 12.9163L13.7389 12.9762ZM19.0629 13.7139L19.0235 13.6429L19.0629 13.7139ZM17.9447 15.3414C17.9446 15.3414 17.9445 15.3413 17.9444 15.3413L17.9446 15.3413L17.9447 15.3414ZM16.4559 17.8234C16.4557 17.8233 16.4556 17.8233 16.4555 17.8232L16.4559 17.8234ZM16.4554 17.8231L16.4555 17.8232L16.4554 17.8231Z" fill="#4CAF4F" stroke="#4CAF4F" stroke-width="0.928093"/>
</svg>
