<svg width="25" height="14" viewBox="0 0 25 14" fill="none" xmlns="http://www.w3.org/2000/svg">
<path d="M6.49255 10.3956C6.01518 10.873 5.36774 11.1411 4.69265 11.1411C3.56256 11.1411 2.60444 10.4047 2.27214 9.38551L0.197388 11.4603C1.14395 12.9425 2.80352 13.9254 4.69265 13.9254C6.10618 13.9254 7.4618 13.3639 8.46131 12.3644L17.2918 3.53384C17.7692 3.05648 18.4166 2.78831 19.0917 2.78831C20.4976 2.78831 21.6372 3.92793 21.6372 5.33374C21.6372 6.00883 21.369 6.65627 20.8916 7.13364L17.6297 10.3956C17.1523 10.873 16.5049 11.1411 15.8298 11.1411C14.6996 11.1411 13.7414 10.4046 13.4092 9.38528L11.3344 11.4601C12.2809 12.9425 13.9405 13.9254 15.8298 13.9254C17.2433 13.9254 18.5989 13.3639 19.5984 12.3644L22.8604 9.1024C23.8599 8.10289 24.4214 6.74727 24.4214 5.33374C24.4214 2.39022 22.0353 0.00402832 19.0917 0.00402832C17.6782 0.00402832 16.3226 0.565548 15.3231 1.56506L6.49255 10.3956Z" fill="#394149"/>
</svg>
