<svg width="32" height="16" viewBox="0 0 32 16" fill="none" xmlns="http://www.w3.org/2000/svg">
<path d="M15.9723 2.91554C16.0154 2.95367 16.0454 3.00381 16.0584 3.0592C16.0715 3.11459 16.0669 3.17256 16.0453 3.22531L12.4561 15.0126C12.4109 15.1413 12.3185 15.2488 12.1969 15.3144C12.0979 15.3793 11.9834 15.4176 11.8646 15.4256H0.457109C0.359688 15.421 0.267392 15.3814 0.197843 15.3144C0.15647 15.2769 0.127432 15.2281 0.114442 15.1744C0.101453 15.1206 0.105111 15.0643 0.124928 15.0126L3.7222 3.22531C3.76365 3.095 3.8532 2.98453 3.97336 2.91554C4.07394 2.85531 4.18793 2.81987 4.30554 2.81228H15.7131C15.8097 2.81319 15.9024 2.85011 15.9723 2.91554ZM10.0174 12.6376L12.1644 5.60023H6.1528L4.01386 12.6376H10.0174ZM26.8614 3.03468C26.9003 3.07902 26.9489 3.11419 27.0037 3.13756C27.0584 3.16094 27.1177 3.17193 27.1774 3.16971H28.66C28.7165 3.17025 28.7721 3.15668 28.8218 3.13027C28.8714 3.10386 28.9133 3.06549 28.9436 3.01879C28.9699 2.98231 28.9885 2.94101 28.9982 2.89735C29.008 2.85369 29.0087 2.80856 29.0003 2.76462L28.7086 0.667698C28.6809 0.570649 28.631 0.481033 28.5628 0.405581C28.5238 0.361238 28.4752 0.326072 28.4205 0.302695C28.3658 0.279317 28.3064 0.268333 28.2468 0.270552H26.7642C26.7077 0.270014 26.652 0.283588 26.6024 0.309993C26.5528 0.336399 26.5109 0.374764 26.4806 0.421472C26.4239 0.532669 26.3996 0.604154 26.4239 0.667698L26.7237 2.76462C26.739 2.86673 26.7873 2.96134 26.8614 3.03468ZM31.5686 0.651812C31.5408 0.554757 31.4909 0.465142 31.4228 0.389695C31.3855 0.345514 31.3383 0.310359 31.2849 0.286939C31.2315 0.263525 31.1734 0.252479 31.1149 0.254666H29.6241C29.5686 0.253116 29.5137 0.266324 29.4652 0.292891C29.4167 0.319458 29.3765 0.358403 29.3487 0.405581C29.2948 0.476048 29.2714 0.564561 29.2839 0.651812L29.5836 2.74873C29.6024 2.84976 29.6502 2.94344 29.7214 3.01879C29.761 3.06227 29.8098 3.09684 29.8643 3.12015C29.9189 3.14345 29.9778 3.15494 30.0373 3.15381H31.5281C31.5835 3.15454 31.6381 3.14098 31.6864 3.11449C31.7348 3.088 31.7752 3.04953 31.8036 3.00291C31.8318 2.96737 31.8515 2.92609 31.8613 2.88211C31.8711 2.83814 31.8708 2.79257 31.8603 2.74873L31.5686 0.651812ZM25.557 3.82897L25.4111 2.79639H18.2247C18.1119 2.80249 18.0027 2.83815 17.9087 2.89965C17.849 2.93155 17.7971 2.97577 17.7565 3.02925C17.716 3.08273 17.6878 3.1442 17.6738 3.20942L17.0742 5.17925C17.0503 5.22848 17.0421 5.28371 17.0508 5.33758C17.0595 5.39146 17.0846 5.44147 17.1228 5.4811C17.1911 5.54406 17.2803 5.58076 17.374 5.58436H26.1079L23.9609 12.6218H15.2513C15.139 12.6243 15.0296 12.6573 14.9353 12.7171C14.8207 12.7884 14.737 12.8987 14.7004 13.0268L14.0927 14.9967C14.0729 15.0472 14.0677 15.1022 14.0777 15.1554C14.0877 15.2087 14.1125 15.2582 14.1494 15.2985C14.2156 15.3657 14.3054 15.4055 14.4006 15.4097H25.8405C25.9588 15.3997 26.0729 15.3616 26.1727 15.2985C26.2923 15.2326 26.3821 15.1248 26.4239 14.9967L29.7132 4.22611H26.0107C25.9519 4.22725 25.8936 4.21656 25.8392 4.1947C25.7849 4.17284 25.7357 4.14027 25.6947 4.09902C25.6277 4.02699 25.5804 3.93958 25.557 3.84486V3.82897Z" fill="white"/>
</svg>
