<svg width="28" height="28" viewBox="0 0 28 28" fill="none" xmlns="http://www.w3.org/2000/svg">
<path fill-rule="evenodd" clip-rule="evenodd" d="M6.97901 0.149963C10.8233 0.149963 13.9397 3.26637 13.9397 7.11066V0.149963H20.9004C24.7446 0.149963 27.8611 3.26637 27.8611 7.11066C27.8611 10.9549 24.7446 14.0714 20.9004 14.0714C24.7446 14.0714 27.8611 17.1878 27.8611 21.032C27.8611 22.9409 27.0927 24.6703 25.8484 25.9278L25.8224 25.954L25.7993 25.977C24.5415 27.2231 22.8108 27.9927 20.9004 27.9927C19.003 27.9927 17.2829 27.2335 16.0272 26.0023C16.0109 25.9863 15.9946 25.9702 15.9784 25.954C15.9632 25.9388 15.948 25.9235 15.9329 25.9081C14.7001 24.6522 13.9397 22.9309 13.9397 21.032C13.9397 24.8763 10.8233 27.9927 6.97901 27.9927C3.13472 27.9927 0.0183105 24.8763 0.0183105 21.032V14.0714H6.97901C3.13472 14.0714 0.0183105 10.9549 0.0183105 7.11066C0.0183105 3.26637 3.13472 0.149963 6.97901 0.149963ZM12.5476 7.11066C12.5476 10.1861 10.0544 12.6792 6.97901 12.6792V1.5421C10.0544 1.5421 12.5476 4.03523 12.5476 7.11066ZM26.469 21.032C26.469 17.9566 23.9758 15.4635 20.9004 15.4635C17.825 15.4635 15.3318 17.9566 15.3318 21.032H26.469ZM1.41045 15.4635V21.032C1.41045 24.1075 3.90358 26.6006 6.97901 26.6006C10.0544 26.6006 12.5476 24.1075 12.5476 21.032V15.4635H1.41045ZM15.3318 12.6792V1.5421H20.9004C23.9758 1.5421 26.469 4.03523 26.469 7.11066C26.469 10.1861 23.9758 12.6792 20.9004 12.6792H15.3318Z" fill="#263238"/>
</svg>
