<svg width="78" height="15" viewBox="0 0 78 15" fill="none" xmlns="http://www.w3.org/2000/svg">
<path d="M12.021 0.19104V14.3655H9.43245L3.26571 5.44419H3.1619V14.3655H0.165039V0.19104H2.79507L8.91337 9.10548H9.03795V0.19104H12.021Z" fill="#263238"/>
<path d="M19.2864 14.5732C18.1929 14.5732 17.2516 14.3517 16.4626 13.9087C15.6782 13.4612 15.0738 12.8291 14.6493 12.0124C14.2248 11.191 14.0125 10.2198 14.0125 9.09855C14.0125 8.00501 14.2248 7.04528 14.6493 6.21936C15.0738 5.39343 15.6713 4.74977 16.4418 4.28836C17.217 3.82695 18.126 3.59624 19.1688 3.59624C19.8701 3.59624 20.523 3.70929 21.1275 3.93538C21.7365 4.15686 22.2671 4.49138 22.7193 4.93895C23.1761 5.38651 23.5314 5.94943 23.7852 6.62771C24.039 7.30136 24.1658 8.09037 24.1658 8.99474V9.80451H15.1891V7.97733H21.3905C21.3905 7.55283 21.2982 7.17678 21.1136 6.84918C20.9291 6.52158 20.673 6.2655 20.3454 6.08093C20.0224 5.89176 19.6463 5.79717 19.2172 5.79717C18.7697 5.79717 18.3728 5.90098 18.0268 6.10862C17.6853 6.31164 17.4177 6.58618 17.2239 6.93224C17.0301 7.27368 16.9309 7.65434 16.9263 8.07422V9.81143C16.9263 10.3374 17.0232 10.7919 17.217 11.1749C17.4154 11.5579 17.6946 11.8532 18.0545 12.0608C18.4144 12.2684 18.8412 12.3723 19.3349 12.3723C19.6625 12.3723 19.9624 12.3261 20.2346 12.2338C20.5069 12.1416 20.7399 12.0031 20.9337 11.8186C21.1275 11.634 21.2751 11.4079 21.3766 11.1403L24.1036 11.3202C23.9651 11.9754 23.6814 12.5476 23.2522 13.0367C22.8278 13.5212 22.2787 13.8995 21.605 14.1718C20.936 14.4394 20.1631 14.5732 19.2864 14.5732Z" fill="#263238"/>
<path d="M28.3635 3.73467L30.3153 7.45132L32.3155 3.73467H35.34L32.2601 9.05011L35.4231 14.3655H32.4124L30.3153 10.6904L28.2528 14.3655H25.2075L28.3635 9.05011L25.3182 3.73467H28.3635Z" fill="#263238"/>
<path d="M41.5137 14.5732C40.4248 14.5732 39.4881 14.3425 38.7037 13.8811C37.9239 13.415 37.3241 12.7691 36.9042 11.9431C36.4889 11.1172 36.2813 10.1667 36.2813 9.09163C36.2813 8.00271 36.4912 7.04759 36.9111 6.22628C37.3356 5.40036 37.9378 4.75669 38.7175 4.29528C39.4973 3.82926 40.4248 3.59624 41.4998 3.59624C42.4273 3.59624 43.2394 3.76466 43.9361 4.10149C44.6328 4.43832 45.1842 4.91126 45.5902 5.52032C45.9963 6.12938 46.2201 6.84457 46.2616 7.66588H43.4793C43.4009 7.13526 43.1932 6.70845 42.8564 6.38547C42.5242 6.05786 42.0881 5.89406 41.5483 5.89406C41.0915 5.89406 40.6924 6.01864 40.3509 6.26781C40.0141 6.51235 39.7511 6.86995 39.5619 7.34058C39.3727 7.81122 39.2782 8.38106 39.2782 9.05011C39.2782 9.72838 39.3704 10.3051 39.555 10.7804C39.7442 11.2556 40.0095 11.6179 40.3509 11.867C40.6924 12.1162 41.0915 12.2408 41.5483 12.2408C41.8851 12.2408 42.1874 12.1715 42.455 12.0331C42.7272 11.8947 42.951 11.694 43.1263 11.431C43.3063 11.1634 43.4239 10.8427 43.4793 10.4689H46.2616C46.2155 11.281 45.994 11.9962 45.5972 12.6145C45.205 13.2282 44.6628 13.708 43.9707 14.0541C43.2786 14.4002 42.4596 14.5732 41.5137 14.5732Z" fill="#263238"/>
<path d="M52.9941 14.5732C51.9006 14.5732 50.9593 14.3517 50.1703 13.9087C49.3859 13.4612 48.7815 12.8291 48.357 12.0124C47.9325 11.191 47.7202 10.2198 47.7202 9.09855C47.7202 8.00501 47.9325 7.04528 48.357 6.21936C48.7815 5.39343 49.379 4.74977 50.1495 4.28836C50.9247 3.82695 51.8337 3.59624 52.8765 3.59624C53.5778 3.59624 54.2307 3.70929 54.8352 3.93538C55.4442 4.15686 55.9748 4.49138 56.427 4.93895C56.8838 5.38651 57.2391 5.94943 57.4929 6.62771C57.7467 7.30136 57.8735 8.09037 57.8735 8.99474V9.80451H48.8968V7.97733H55.0982C55.0982 7.55283 55.0059 7.17678 54.8213 6.84918C54.6368 6.52158 54.3807 6.2655 54.0531 6.08093C53.7301 5.89176 53.354 5.79717 52.9249 5.79717C52.4774 5.79717 52.0806 5.90098 51.7345 6.10862C51.393 6.31164 51.1254 6.58618 50.9316 6.93224C50.7378 7.27368 50.6386 7.65434 50.634 8.07422V9.81143C50.634 10.3374 50.7309 10.7919 50.9247 11.1749C51.1231 11.5579 51.4023 11.8532 51.7622 12.0608C52.1221 12.2684 52.5489 12.3723 53.0426 12.3723C53.3702 12.3723 53.6701 12.3261 53.9423 12.2338C54.2146 12.1416 54.4476 12.0031 54.6414 11.8186C54.8352 11.634 54.9828 11.4079 55.0843 11.1403L57.8113 11.3202C57.6728 11.9754 57.3891 12.5476 56.96 13.0367C56.5355 13.5212 55.9864 13.8995 55.3127 14.1718C54.6437 14.4394 53.8708 14.5732 52.9941 14.5732Z" fill="#263238"/>
<path d="M62.746 8.21957V14.3655H59.7976V3.73467H62.6076V5.6103H62.7322C62.9675 4.99201 63.362 4.50291 63.9157 4.14301C64.4694 3.7785 65.1407 3.59624 65.9298 3.59624C66.668 3.59624 67.3117 3.75774 67.8608 4.08072C68.4098 4.40371 68.8366 4.86512 69.1412 5.46495C69.4457 6.06017 69.598 6.77074 69.598 7.59667V14.3655H66.6496V8.12267C66.6542 7.47209 66.4881 6.96453 66.1512 6.60002C65.8144 6.23089 65.3507 6.04633 64.7601 6.04633C64.3633 6.04633 64.0126 6.13169 63.7081 6.30241C63.4082 6.47313 63.1728 6.72229 63.0021 7.0499C62.836 7.37288 62.7506 7.76277 62.746 8.21957Z" fill="#263238"/>
<path d="M77.5763 3.73467V5.94943H71.1743V3.73467H77.5763ZM72.6277 1.18769H75.5761V11.0988C75.5761 11.371 75.6176 11.5832 75.7007 11.7355C75.7837 11.8832 75.8991 11.987 76.0467 12.047C76.199 12.1069 76.3743 12.1369 76.5728 12.1369C76.7112 12.1369 76.8496 12.1254 76.988 12.1023C77.1264 12.0746 77.2326 12.0539 77.3064 12.04L77.7701 14.234C77.6225 14.2802 77.4148 14.3332 77.1472 14.3932C76.8796 14.4578 76.5543 14.497 76.1713 14.5109C75.4608 14.5386 74.8378 14.444 74.3026 14.2271C73.772 14.0103 73.359 13.6734 73.0637 13.2166C72.7684 12.7598 72.6231 12.1831 72.6277 11.4863V1.18769Z" fill="#263238"/>
</svg>
